<svg id="Layer_1" data-name="Layer 1" xmlns="http://www.w3.org/2000/svg" viewBox="0 0 480.39 398.08"><defs><style>.cls-1{fill:#fff;}.cls-2{stroke:#000;stroke-miterlimit:10;stroke-width:3px;}.cls-3{fill:#efeeee;}.cls-4{fill:#ff0;}</style></defs><rect class="cls-1" x="28.81" y="185.8" width="441.99" height="198.97" transform="translate(-70.61 29.57) rotate(-13.84)"/><path d="M439.48,137.63l46.89,190.28-426.24,105L13.24,242.66l426.24-105m2.2-3.63L9.61,240.47l48.33,196.1L490,330.1,441.68,134Z" transform="translate(-9.61 -38.49)"/><path d="M277.81,298.24c-2.24-9.1-10.35-11.71-28-11.95l-7.69-.1c-21.85-.29-35.9-5.11-39.46-19.56-3.63-14.75,9.74-30.31,32.23-35.85,19.75-4.87,37.53-.05,41.76,12.09-.81,3.42-3.78,5.69-7.5,6.61-4.3,1.06-9.68.23-13.88-6.7l-6-10.17,11.45,2.7a74.6,74.6,0,0,0-21.9,2c-14.47,3.57-24.3,11.66-21.63,22.5,2.28,9.26,11.35,12.39,26,12.29l7.89.05c28.07.29,38.41,7.71,41.33,19.57,3.81,15.47-9.52,30.41-36.11,37-20.92,5.15-38.86.53-42.74-11.86,1.05-3.32,3.39-5.59,7.7-6.65,4.69-1.15,9.45-.34,13.69,6.75l6,10.17-11.65-2.65a94.33,94.33,0,0,0,26.24-2.94C271.58,317.57,280.45,308.94,277.81,298.24Zm-34.24-17.78-15.25-61.88,7.82-1.92,15.25,61.87Zm-.2.05,7.82-1.93,15.57,63.18-7.82,1.93Z" transform="translate(-9.61 -38.49)"/><line class="cls-2" x1="14.51" y1="211.19" x2="45.97" y2="203.44"/><line class="cls-2" x1="22.4" y1="240.95" x2="14.64" y2="209.49"/><line class="cls-2" x1="57.4" y1="385.28" x2="88.87" y2="377.53"/><line class="cls-2" x1="50.56" y1="355.26" x2="58.32" y2="386.72"/><line class="cls-2" x1="421.54" y1="109.23" x2="429.29" y2="140.69"/><line class="cls-2" x1="391.78" y1="117.11" x2="423.24" y2="109.36"/><line class="cls-2" x1="466.4" y1="284.49" x2="434.94" y2="292.25"/><line class="cls-2" x1="458.51" y1="254.74" x2="466.26" y2="286.2"/><path class="cls-3" d="M466.78,167.18c-25.35-6.34-23.59-5.39-28.55-12.08-9.51-12.63-26-14.61-27.26-17C451.6,129.23,465.64,156.08,466.78,167.18Z" transform="translate(-9.61 -38.49)"/><path class="cls-3" d="M474.21,202.69c-7.07-2.27-13.89-5.83-21.27-6.66a31.55,31.55,0,0,0-7.12-22,31.88,31.88,0,0,0-12.08-8.88c-1.09-.46-6-1.18-6.14-2.63s5.47-1,6.65-1c11.1,0,21.89,2.94,32.58,6.3a11.48,11.48,0,0,1,0,1.86C476.1,176.87,476.24,191.18,474.21,202.69Z" transform="translate(-9.61 -38.49)"/><ellipse class="cls-4" cx="337.62" cy="174.23" rx="44.74" ry="71.25"/><path class="cls-1" d="M448.55,239.14l-.25.21c11.2,2.11,19.3,10,20.8,18.68,3.1,16.88-18.58,36.81-90,23.28-53.62-19.45-63.67-74.26-36.55-111,8-10.81,28-24.28,24.94-55-2.84-29.31-10-40.59-8.62-56.69,2-25.11,33.38-20.81,44.86-3.3,8.79,13.2,13.35,58.08,4.07,83.47,39.89-9.49,60.58,15.11,59,30.87,10.22,8,8.78,22.54,7.07,35.37C484.86,218.28,476.14,241.35,448.55,239.14Z" transform="translate(-9.61 -38.49)"/><path class="cls-3" d="M379.12,281.31c-16.36-5.93-31.44-16.36-40.78-31.07-15.23-23.9-12.6-57.15,4.23-80a78.3,78.3,0,0,1,8.37-9.55,55.45,55.45,0,0,0,16.57-45.42,207.71,207.71,0,0,0-4-25.25c-2.32-10.37-5.47-20.85-4.59-31.44a25.65,25.65,0,0,1,1-5.67c.05.1.15.15.2.2,21.94,18.54,32.78,49.82,25.51,77.59-8.41,32.24-41.93,61.59-34.38,96.64,5,23.18,28.44,38.77,52,41.92C427.3,272.46,457,265.65,469.1,258,472.2,274.91,450.52,294.84,379.12,281.31Z" transform="translate(-9.61 -38.49)"/><path class="cls-3" d="M452.37,239.35c-2.68-.37-5.42-.73-8.1-1.14,12.84-6.18,16.74-25,3.77-35.31-1.24-1-9.45-4.18-8.16-6.35s13.53-.05,15.85.21C488.24,200.49,484.85,239.35,452.37,239.35Z" transform="translate(-9.61 -38.49)"/><path d="M481,218a22.2,22.2,0,0,0-4-13.16c1-2,4.9-26-7.54-36.35-.1-5.62-3.82-17-14.14-25.29-7.75-6.2-21.43-12.39-43.62-7.9,4.49-15.43,5-35.52,1.44-59.88-.93-6.3-2.58-14.51-7.23-21.53A34.87,34.87,0,0,0,374.57,38.6c-10.37,1-17.14,6.54-18.27,19.82-.88,11.32,2.44,22.12,4.64,32.17,4.66,20.46,6.64,35.71-.15,51.36a31.75,31.75,0,0,0-13.58-3.1c-26.07,0-47.29,33.14-47.29,73.87s21.22,73.82,47.29,73.82a33.79,33.79,0,0,0,20.55-7.33,93.41,93.41,0,0,0,10.48,4.55c.52,0,21.76,4.64,42.89,4.64,32,0,43.52-10.17,47.45-15.64,4.64-6.5,4.95-14.35.92-21.47a26.36,26.36,0,0,0-9.7-9.66C471.72,239.46,480.81,229.66,481,218ZM347.21,281.38c-23.23,0-42.12-30.82-42.12-68.66S324,144,347.21,144a27.26,27.26,0,0,1,11.36,2.53c-5.82,10.68-10.43,12-18.07,22.2-18.07,24.47-19.82,58.54-4.34,82.91,6.25,9.86,15.44,18.38,26.59,24.88A28,28,0,0,1,347.21,281.38ZM453.5,236.83c-4.7-.31-9.39-.46-14.14-.57a2.4,2.4,0,0,0-2.58,2.53,2.89,2.89,0,0,0,.51,1.66,2.52,2.52,0,0,0,2.69,1.91c10.73-.88,20.54,3.56,25,11.46a14.33,14.33,0,0,1-.67,15.95c-13.61,19.17-75.3,15.68-97,3.35-11.3-6.19-20.6-14.55-26.79-24.26-14.35-22.56-12.65-54.26,4.13-77.07,8.36-11.21,13.86-12.06,20.75-27.31,7.7-17.47,5.26-34.12.62-55-2.68-11-5.28-21.37-4.54-30.66.8-10.3,5.37-14.35,13.52-15.08a29.72,29.72,0,0,1,26.64,13c3.15,4.8,5.11,10.84,6.4,19.46,3.77,25.87,2.89,46.62-2.63,61.74a2.39,2.39,0,0,0,.51,2.58,2.45,2.45,0,0,0,2.53.78c18.07-4.54,33.15-2.53,43.68,5.93a34.19,34.19,0,0,1,11.61,17.4c-8.82-4.44-22-5.93-40.57-4.54a2.56,2.56,0,1,0,.36,5.11C469,161.87,475.27,176,472.5,200a25.7,25.7,0,0,0-16.78-5.57c-5.94,0-14,.41-21.22.93a2.52,2.52,0,0,0-2.42,2.73,2.61,2.61,0,0,0,2.73,2.38c7.13-.47,15.13-.83,21.12-.88a20.83,20.83,0,0,1,14.81,5.83,17.12,17.12,0,0,1,5.11,12.5C475.68,229.3,464.51,237.83,453.5,236.83Z" transform="translate(-9.61 -38.49)"/></svg>